<svg xmlns="http://www.w3.org/2000/svg" viewBox="0 0 400 300">
<rect width="400" height="300" fill="#d1fae5"/>
<circle cx="70" cy="55" r="24" fill="#fef08a"/>
<ellipse cx="120" cy="290" rx="240" ry="120" fill="#86efac"/>
<ellipse cx="360" cy="300" rx="220" ry="100" fill="#4ade80"/>
<g stroke="#a16207" stroke-width="5"><line x1="20" y1="150" x2="20" y2="190"/><line x1="90" y1="150" x2="90" y2="190"/><line x1="160" y1="150" x2="160" y2="190"/><line x1="0" y1="160" x2="180" y2="160"/><line x1="0" y1="180" x2="180" y2="180"/></g>
<g><ellipse cx="230" cy="200" rx="46" ry="30" fill="#fff"/><circle cx="272" cy="188" r="16" fill="#334155"/><rect x="208" y="222" width="7" height="20" fill="#334155"/><rect x="240" y="222" width="7" height="20" fill="#334155"/></g>
<g><ellipse cx="330" cy="230" rx="38" ry="25" fill="#fff"/><circle cx="365" cy="220" r="13" fill="#334155"/><rect x="312" y="248" width="6" height="16" fill="#334155"/><rect x="338" y="248" width="6" height="16" fill="#334155"/></g>
<g><ellipse cx="120" cy="240" rx="32" ry="21" fill="#fff"/><circle cx="149" cy="232" r="11" fill="#334155"/><rect x="106" y="255" width="5" height="14" fill="#334155"/><rect x="128" y="255" width="5" height="14" fill="#334155"/></g>
</svg>
